<mxfile host="app.diagrams.net" agent="Mozilla/5.0 (Windows NT 10.0; Win64; x64) AppleWebKit/537.36 (KHTML, like Gecko) Chrome/136.0.0.0 Safari/537.36" version="27.0.3">
  <diagram name="Page-1" id="b520641d-4fe3-3701-9064-5fc419738815">
    <mxGraphModel dx="2231" dy="1745" grid="1" gridSize="10" guides="1" tooltips="1" connect="1" arrows="1" fold="1" page="1" pageScale="1" pageWidth="1100" pageHeight="850" background="none" math="0" shadow="0">
      <root>
        <mxCell id="0" />
        <mxCell id="1" parent="0" />
        <mxCell id="ZcKWtI1Hsa9g-kHbRSaE-42" value="" style="edgeStyle=orthogonalEdgeStyle;rounded=0;orthogonalLoop=1;jettySize=auto;html=1;entryX=0.5;entryY=0;entryDx=0;entryDy=0;" edge="1" parent="1" source="21ea969265ad0168-6" target="ZcKWtI1Hsa9g-kHbRSaE-22">
          <mxGeometry relative="1" as="geometry" />
        </mxCell>
        <mxCell id="21ea969265ad0168-6" value="Function" style="swimlane;html=1;fontStyle=0;childLayout=stackLayout;horizontal=1;startSize=26;fillColor=#e0e0e0;horizontalStack=0;resizeParent=1;resizeLast=0;collapsible=1;marginBottom=0;swimlaneFillColor=#ffffff;align=center;rounded=1;shadow=0;comic=0;labelBackgroundColor=none;strokeWidth=1;fontFamily=Verdana;fontSize=12" parent="1" vertex="1">
          <mxGeometry x="20" y="40" width="160" height="110" as="geometry" />
        </mxCell>
        <mxCell id="21ea969265ad0168-7" value="Row 1" style="text;html=1;strokeColor=none;fillColor=none;spacingLeft=4;spacingRight=4;whiteSpace=wrap;overflow=hidden;rotatable=0;points=[[0,0.5],[1,0.5]];portConstraint=eastwest;" parent="21ea969265ad0168-6" vertex="1">
          <mxGeometry y="26" width="160" height="26" as="geometry" />
        </mxCell>
        <mxCell id="21ea969265ad0168-8" value="Row 2" style="text;html=1;strokeColor=none;fillColor=none;spacingLeft=4;spacingRight=4;whiteSpace=wrap;overflow=hidden;rotatable=0;points=[[0,0.5],[1,0.5]];portConstraint=eastwest;" parent="21ea969265ad0168-6" vertex="1">
          <mxGeometry y="52" width="160" height="26" as="geometry" />
        </mxCell>
        <mxCell id="21ea969265ad0168-9" value="Row 3" style="text;html=1;strokeColor=none;fillColor=none;spacingLeft=4;spacingRight=4;whiteSpace=wrap;overflow=hidden;rotatable=0;points=[[0,0.5],[1,0.5]];portConstraint=eastwest;" parent="21ea969265ad0168-6" vertex="1">
          <mxGeometry y="78" width="160" height="26" as="geometry" />
        </mxCell>
        <mxCell id="ZcKWtI1Hsa9g-kHbRSaE-65" value="" style="edgeStyle=orthogonalEdgeStyle;rounded=0;orthogonalLoop=1;jettySize=auto;html=1;entryX=0.5;entryY=0;entryDx=0;entryDy=0;" edge="1" parent="1" source="21ea969265ad0168-10" target="ZcKWtI1Hsa9g-kHbRSaE-1">
          <mxGeometry relative="1" as="geometry" />
        </mxCell>
        <mxCell id="21ea969265ad0168-10" value="Model 1" style="swimlane;html=1;fontStyle=0;childLayout=stackLayout;horizontal=1;startSize=26;fillColor=#e0e0e0;horizontalStack=0;resizeParent=1;resizeLast=0;collapsible=1;marginBottom=0;swimlaneFillColor=#ffffff;align=center;rounded=1;shadow=0;comic=0;labelBackgroundColor=none;strokeWidth=1;fontFamily=Verdana;fontSize=12" parent="1" vertex="1">
          <mxGeometry x="550" y="110" width="180" height="90" as="geometry" />
        </mxCell>
        <mxCell id="ZcKWtI1Hsa9g-kHbRSaE-64" value="Model không xét tới CV, EQ" style="text;html=1;strokeColor=#d79b00;fillColor=#ffe6cc;spacingLeft=4;spacingRight=4;whiteSpace=wrap;overflow=hidden;rotatable=0;points=[[0,0.5],[1,0.5]];portConstraint=eastwest;" vertex="1" parent="21ea969265ad0168-10">
          <mxGeometry y="26" width="180" height="26" as="geometry" />
        </mxCell>
        <mxCell id="21ea969265ad0168-11" value="Mục đích: Tính toán ứng suất" style="text;html=1;spacingLeft=4;spacingRight=4;whiteSpace=wrap;overflow=hidden;rotatable=0;points=[[0,0.5],[1,0.5]];portConstraint=eastwest;" parent="21ea969265ad0168-10" vertex="1">
          <mxGeometry y="52" width="180" height="26" as="geometry" />
        </mxCell>
        <mxCell id="ZcKWtI1Hsa9g-kHbRSaE-9" value="" style="edgeStyle=orthogonalEdgeStyle;rounded=0;orthogonalLoop=1;jettySize=auto;html=1;" edge="1" parent="1" source="ZcKWtI1Hsa9g-kHbRSaE-1" target="ZcKWtI1Hsa9g-kHbRSaE-7">
          <mxGeometry relative="1" as="geometry" />
        </mxCell>
        <mxCell id="ZcKWtI1Hsa9g-kHbRSaE-1" value="Chạy US lần 1" style="swimlane;html=1;fontStyle=0;childLayout=stackLayout;horizontal=1;startSize=26;fillColor=#e0e0e0;horizontalStack=0;resizeParent=1;resizeLast=0;collapsible=1;marginBottom=0;swimlaneFillColor=#ffffff;align=center;rounded=1;shadow=0;comic=0;labelBackgroundColor=none;strokeWidth=1;fontFamily=Verdana;fontSize=12" vertex="1" parent="1">
          <mxGeometry x="560" y="230" width="160" height="114" as="geometry" />
        </mxCell>
        <mxCell id="ZcKWtI1Hsa9g-kHbRSaE-10" value="Lực căng tất cả các dây là 1000kN" style="text;html=1;strokeColor=#d79b00;fillColor=#ffe6cc;spacingLeft=4;spacingRight=4;whiteSpace=wrap;overflow=hidden;rotatable=0;points=[[0,0.5],[1,0.5]];portConstraint=eastwest;" vertex="1" parent="ZcKWtI1Hsa9g-kHbRSaE-1">
          <mxGeometry y="26" width="160" height="44" as="geometry" />
        </mxCell>
        <mxCell id="ZcKWtI1Hsa9g-kHbRSaE-2" value="US lớn, cần test lại xem do lực căng lớn hay bé" style="text;html=1;strokeColor=none;fillColor=none;spacingLeft=4;spacingRight=4;whiteSpace=wrap;overflow=hidden;rotatable=0;points=[[0,0.5],[1,0.5]];portConstraint=eastwest;" vertex="1" parent="ZcKWtI1Hsa9g-kHbRSaE-1">
          <mxGeometry y="70" width="160" height="44" as="geometry" />
        </mxCell>
        <mxCell id="ZcKWtI1Hsa9g-kHbRSaE-15" value="" style="edgeStyle=orthogonalEdgeStyle;rounded=0;orthogonalLoop=1;jettySize=auto;html=1;" edge="1" parent="1" source="ZcKWtI1Hsa9g-kHbRSaE-7" target="ZcKWtI1Hsa9g-kHbRSaE-12">
          <mxGeometry relative="1" as="geometry" />
        </mxCell>
        <mxCell id="ZcKWtI1Hsa9g-kHbRSaE-7" value="Chạy US lần 2" style="swimlane;html=1;fontStyle=0;childLayout=stackLayout;horizontal=1;startSize=26;fillColor=#e0e0e0;horizontalStack=0;resizeParent=1;resizeLast=0;collapsible=1;marginBottom=0;swimlaneFillColor=#ffffff;align=center;rounded=1;shadow=0;comic=0;labelBackgroundColor=none;strokeWidth=1;fontFamily=Verdana;fontSize=12" vertex="1" parent="1">
          <mxGeometry x="560" y="380" width="160" height="120" as="geometry" />
        </mxCell>
        <mxCell id="ZcKWtI1Hsa9g-kHbRSaE-11" value="Lực căng tất cả các dây là 295kN" style="text;html=1;strokeColor=#d79b00;fillColor=#ffe6cc;spacingLeft=4;spacingRight=4;whiteSpace=wrap;overflow=hidden;rotatable=0;points=[[0,0.5],[1,0.5]];portConstraint=eastwest;" vertex="1" parent="ZcKWtI1Hsa9g-kHbRSaE-7">
          <mxGeometry y="26" width="160" height="44" as="geometry" />
        </mxCell>
        <mxCell id="ZcKWtI1Hsa9g-kHbRSaE-8" value="US càng lớn, kết luận do thiếu lực căng, cần tăng" style="text;html=1;strokeColor=none;fillColor=none;spacingLeft=4;spacingRight=4;whiteSpace=wrap;overflow=hidden;rotatable=0;points=[[0,0.5],[1,0.5]];portConstraint=eastwest;" vertex="1" parent="ZcKWtI1Hsa9g-kHbRSaE-7">
          <mxGeometry y="70" width="160" height="44" as="geometry" />
        </mxCell>
        <mxCell id="ZcKWtI1Hsa9g-kHbRSaE-21" value="" style="edgeStyle=orthogonalEdgeStyle;rounded=0;orthogonalLoop=1;jettySize=auto;html=1;" edge="1" parent="1" source="ZcKWtI1Hsa9g-kHbRSaE-12" target="ZcKWtI1Hsa9g-kHbRSaE-17">
          <mxGeometry relative="1" as="geometry" />
        </mxCell>
        <mxCell id="ZcKWtI1Hsa9g-kHbRSaE-48" value="" style="edgeStyle=orthogonalEdgeStyle;rounded=0;orthogonalLoop=1;jettySize=auto;html=1;entryX=0;entryY=0.5;entryDx=0;entryDy=0;" edge="1" parent="1" source="ZcKWtI1Hsa9g-kHbRSaE-12" target="ZcKWtI1Hsa9g-kHbRSaE-50">
          <mxGeometry relative="1" as="geometry">
            <mxPoint x="800" y="180" as="targetPoint" />
            <Array as="points">
              <mxPoint x="780" y="639" />
              <mxPoint x="780" y="214" />
            </Array>
          </mxGeometry>
        </mxCell>
        <mxCell id="ZcKWtI1Hsa9g-kHbRSaE-12" value="Chạy US lần 3" style="swimlane;html=1;fontStyle=0;childLayout=stackLayout;horizontal=1;startSize=26;fillColor=#e0e0e0;horizontalStack=0;resizeParent=1;resizeLast=0;collapsible=1;marginBottom=0;swimlaneFillColor=#ffffff;align=center;rounded=1;shadow=0;comic=0;labelBackgroundColor=none;strokeWidth=1;fontFamily=Verdana;fontSize=12" vertex="1" parent="1">
          <mxGeometry x="560" y="536" width="160" height="206" as="geometry" />
        </mxCell>
        <mxCell id="ZcKWtI1Hsa9g-kHbRSaE-13" value="Lực căng tất cả các dây là 1600kN" style="text;html=1;strokeColor=#d79b00;fillColor=#ffe6cc;spacingLeft=4;spacingRight=4;whiteSpace=wrap;overflow=hidden;rotatable=0;points=[[0,0.5],[1,0.5]];portConstraint=eastwest;" vertex="1" parent="ZcKWtI1Hsa9g-kHbRSaE-12">
          <mxGeometry y="26" width="160" height="44" as="geometry" />
        </mxCell>
        <mxCell id="ZcKWtI1Hsa9g-kHbRSaE-16" value="US nhịp sát nhịp giữa lớn quá, nhịp biên thì bé, nhịp gữa cũng bé" style="text;html=1;strokeColor=none;fillColor=none;spacingLeft=4;spacingRight=4;whiteSpace=wrap;overflow=hidden;rotatable=0;points=[[0,0.5],[1,0.5]];portConstraint=eastwest;" vertex="1" parent="ZcKWtI1Hsa9g-kHbRSaE-12">
          <mxGeometry y="70" width="160" height="60" as="geometry" />
        </mxCell>
        <mxCell id="ZcKWtI1Hsa9g-kHbRSaE-14" value="Việc tăng lực căng có hiệu quả, nhưng cần sửa đổi về độ lớn lực căng giữa các vòm" style="text;html=1;strokeColor=none;fillColor=none;spacingLeft=4;spacingRight=4;whiteSpace=wrap;overflow=hidden;rotatable=0;points=[[0,0.5],[1,0.5]];portConstraint=eastwest;" vertex="1" parent="ZcKWtI1Hsa9g-kHbRSaE-12">
          <mxGeometry y="130" width="160" height="60" as="geometry" />
        </mxCell>
        <mxCell id="ZcKWtI1Hsa9g-kHbRSaE-17" value="Chạy US lần 4" style="swimlane;html=1;fontStyle=0;childLayout=stackLayout;horizontal=1;startSize=26;fillColor=#e0e0e0;horizontalStack=0;resizeParent=1;resizeLast=0;collapsible=1;marginBottom=0;swimlaneFillColor=#ffffff;align=center;rounded=1;shadow=0;comic=0;labelBackgroundColor=none;strokeWidth=1;fontFamily=Verdana;fontSize=12" vertex="1" parent="1">
          <mxGeometry x="560" y="770" width="160" height="210" as="geometry" />
        </mxCell>
        <mxCell id="ZcKWtI1Hsa9g-kHbRSaE-18" value="Căng vòm biên 1300kN&lt;div&gt;Căng vòm tiếp theo 1750kN&lt;/div&gt;&lt;div&gt;Căng vòm giữa 1300kN&lt;/div&gt;" style="text;html=1;strokeColor=#d79b00;fillColor=#ffe6cc;spacingLeft=4;spacingRight=4;whiteSpace=wrap;overflow=hidden;rotatable=0;points=[[0,0.5],[1,0.5]];portConstraint=eastwest;" vertex="1" parent="ZcKWtI1Hsa9g-kHbRSaE-17">
          <mxGeometry y="26" width="160" height="54" as="geometry" />
        </mxCell>
        <mxCell id="ZcKWtI1Hsa9g-kHbRSaE-19" value="US nhịp sát nhịp giữa lớn quá, nhịp biên thì bé, nhịp gữa cũng bé" style="text;html=1;strokeColor=none;fillColor=none;spacingLeft=4;spacingRight=4;whiteSpace=wrap;overflow=hidden;rotatable=0;points=[[0,0.5],[1,0.5]];portConstraint=eastwest;" vertex="1" parent="ZcKWtI1Hsa9g-kHbRSaE-17">
          <mxGeometry y="80" width="160" height="60" as="geometry" />
        </mxCell>
        <mxCell id="ZcKWtI1Hsa9g-kHbRSaE-20" value="Kết quả vẫn lớn, vị trí gối trên trụ T10, T11 không có thay đổi nhiều" style="text;html=1;strokeColor=none;fillColor=none;spacingLeft=4;spacingRight=4;whiteSpace=wrap;overflow=hidden;rotatable=0;points=[[0,0.5],[1,0.5]];portConstraint=eastwest;" vertex="1" parent="ZcKWtI1Hsa9g-kHbRSaE-17">
          <mxGeometry y="140" width="160" height="60" as="geometry" />
        </mxCell>
        <mxCell id="ZcKWtI1Hsa9g-kHbRSaE-63" value="" style="edgeStyle=orthogonalEdgeStyle;rounded=0;orthogonalLoop=1;jettySize=auto;html=1;entryX=0.5;entryY=0;entryDx=0;entryDy=0;exitX=0.5;exitY=1;exitDx=0;exitDy=0;" edge="1" parent="1" source="ZcKWtI1Hsa9g-kHbRSaE-22" target="21ea969265ad0168-10">
          <mxGeometry relative="1" as="geometry">
            <mxPoint x="630" y="60" as="targetPoint" />
          </mxGeometry>
        </mxCell>
        <mxCell id="ZcKWtI1Hsa9g-kHbRSaE-22" value="Sửa đổi 20250510" style="swimlane;html=1;fontStyle=0;childLayout=stackLayout;horizontal=1;startSize=26;fillColor=#e0e0e0;horizontalStack=0;resizeParent=1;resizeLast=0;collapsible=1;marginBottom=0;swimlaneFillColor=#ffffff;align=center;rounded=1;shadow=0;comic=0;labelBackgroundColor=none;strokeWidth=1;fontFamily=Verdana;fontSize=12" vertex="1" parent="1">
          <mxGeometry x="640" y="-290" width="260" height="240" as="geometry" />
        </mxCell>
        <mxCell id="ZcKWtI1Hsa9g-kHbRSaE-23" value="&lt;div&gt;Các update ngày 10052025:&lt;/div&gt;&lt;div&gt;+ Tĩnh tải dải đều: 107.4 kN/m　→ 103.1 kN/m&lt;/div&gt;&lt;div&gt;+ Bề rộng lề bộ hành: B thay đổi → B=5m&lt;/div&gt;&lt;div&gt;+ Nhiệt độ lắp đặt: 23.4 → 25. Các tải trọng liên quan bao gồm TU, CR-SH&lt;/div&gt;&lt;div&gt;+ Tải trọnh nước WA: ko xét nước thấp nhất = 0 → Nước max = min = 17344kN,&amp;nbsp;&lt;/div&gt;&lt;div&gt;áp lực dòng chảy ngang cũng thay đổi&lt;/div&gt;&lt;div&gt;+ Co ngót từ biến 10950 → 10000days&lt;/div&gt;&lt;div&gt;+ Cập nhật thêm tổ hợp ELS bao gồm CV và EQ theo như tài liệu 10/05&lt;/div&gt;" style="text;html=1;strokeColor=none;fillColor=none;spacingLeft=4;spacingRight=4;whiteSpace=wrap;overflow=hidden;rotatable=0;points=[[0,0.5],[1,0.5]];portConstraint=eastwest;" vertex="1" parent="ZcKWtI1Hsa9g-kHbRSaE-22">
          <mxGeometry y="26" width="260" height="174" as="geometry" />
        </mxCell>
        <mxCell id="ZcKWtI1Hsa9g-kHbRSaE-30" value="" style="edgeStyle=orthogonalEdgeStyle;rounded=0;orthogonalLoop=1;jettySize=auto;html=1;entryX=0.5;entryY=0;entryDx=0;entryDy=0;exitX=0.5;exitY=1;exitDx=0;exitDy=0;" edge="1" parent="1" source="ZcKWtI1Hsa9g-kHbRSaE-22" target="ZcKWtI1Hsa9g-kHbRSaE-38">
          <mxGeometry relative="1" as="geometry">
            <mxPoint x="550" y="340" as="targetPoint" />
          </mxGeometry>
        </mxCell>
        <mxCell id="ZcKWtI1Hsa9g-kHbRSaE-38" value="Model 2" style="swimlane;html=1;fontStyle=0;childLayout=stackLayout;horizontal=1;startSize=26;fillColor=#e0e0e0;horizontalStack=0;resizeParent=1;resizeLast=0;collapsible=1;marginBottom=0;swimlaneFillColor=#ffffff;align=center;rounded=1;shadow=0;comic=0;labelBackgroundColor=none;strokeWidth=1;fontFamily=Verdana;fontSize=12" vertex="1" parent="1">
          <mxGeometry x="840" y="120" width="200" height="170" as="geometry" />
        </mxCell>
        <mxCell id="ZcKWtI1Hsa9g-kHbRSaE-43" value="Model có xét thêm EQ, CV" style="text;html=1;strokeColor=#d79b00;fillColor=#ffe6cc;spacingLeft=4;spacingRight=4;whiteSpace=wrap;overflow=hidden;rotatable=0;points=[[0,0.5],[1,0.5]];portConstraint=eastwest;" vertex="1" parent="ZcKWtI1Hsa9g-kHbRSaE-38">
          <mxGeometry y="26" width="200" height="26" as="geometry" />
        </mxCell>
        <mxCell id="ZcKWtI1Hsa9g-kHbRSaE-39" value="Gửi cho tvtk ngày 20250510" style="text;html=1;strokeColor=none;fillColor=none;spacingLeft=4;spacingRight=4;whiteSpace=wrap;overflow=hidden;rotatable=0;points=[[0,0.5],[1,0.5]];portConstraint=eastwest;" vertex="1" parent="ZcKWtI1Hsa9g-kHbRSaE-38">
          <mxGeometry y="52" width="200" height="26" as="geometry" />
        </mxCell>
        <mxCell id="ZcKWtI1Hsa9g-kHbRSaE-50" value="Giá trị lực căng dây" style="text;html=1;strokeColor=#d6b656;fillColor=#fff2cc;spacingLeft=4;spacingRight=4;whiteSpace=wrap;overflow=hidden;rotatable=0;points=[[0,0.5],[1,0.5]];portConstraint=eastwest;" vertex="1" parent="ZcKWtI1Hsa9g-kHbRSaE-38">
          <mxGeometry y="78" width="200" height="32" as="geometry" />
        </mxCell>
        <mxCell id="ZcKWtI1Hsa9g-kHbRSaE-49" value="Các thông số đầu vào, tổ hợp, in biểu đồ: OK" style="text;html=1;strokeColor=#82b366;fillColor=#d5e8d4;spacingLeft=4;spacingRight=4;whiteSpace=wrap;overflow=hidden;rotatable=0;points=[[0,0.5],[1,0.5]];portConstraint=eastwest;" vertex="1" parent="ZcKWtI1Hsa9g-kHbRSaE-38">
          <mxGeometry y="110" width="200" height="40" as="geometry" />
        </mxCell>
      </root>
    </mxGraphModel>
  </diagram>
</mxfile>
